P3
# CREATOR: XV Version 3.10a  Rev: 12/29/94
3 2
255
111 111 111 1 1 1 111 111 111
1 1 1 111 111 111 1 1 1