P2
# CREATOR: XV Version 3.10a  Rev: 12/29/94
3 2
255
111 1 111
1 111 1